#Comment line ignore any data following # character 
#Hierarchical Translation and Rotation (.htr) file 
[Header]	
#Header keywords are followed by a single value 
FileType HTR		#Single word string
DataType HTRS		#Translation followed by rotation and scale data
FileVersion 1		#integer
NumSegments 84		#integer
NumFrames 2		#integer
DataFrameRate 30		#integer, data frame rate in this file
EulerRotationOrder ZYX
CalibrationUnits mm
RotationUnits Degrees
GlobalAxisofGravity Y
BoneLengthAxis Y
ScaleFactor 1.00
[SegmentNames&Hierarchy]
#CHILD	PARENT
MASTER GLOBAL
root MASTER
chest root
L_mid_tent01 root
R_mid_tent01 root
spine01 root
Bip01_Neck chest
L_humerus chest
R_humerus chest
weapon_bone chest
Bip01_Head Bip01_Neck
eye_left_bone Bip01_Head
eye_right_bone Bip01_Head
L_forearm L_humerus
L_front_hand L_forearm
L_weapon_bone L_forearm
L_front_hand01_01 L_front_hand
L_front_hand02_01 L_front_hand
L_front_hand03_01 L_front_hand
L_front_hand01_02 L_front_hand01_01
L_front_hand02_02 L_front_hand02_01
L_front_hand03_02 L_front_hand03_01
R_forearm R_humerus
R_front_hand R_forearm
R_weapon_bone R_forearm
R_front_hand01_01 R_front_hand
R_front_hand02_01 R_front_hand
R_front_hand03_01 R_front_hand
R_front_hand01_02 R_front_hand01_01
R_front_hand02_02 R_front_hand02_01
R_front_hand03_02 R_front_hand03_01
null_rope01_connect L_mid_tent01
Rope1_Seg01 null_rope01_connect
Rope1_Seg02 Rope1_Seg01
Rope1_Seg03 Rope1_Seg02
Rope1_Seg04 Rope1_Seg03
Rope1_Seg05 Rope1_Seg04
Rope1_Seg06 Rope1_Seg05
Rope1_Seg07 Rope1_Seg06
Rope1_Seg09 Rope1_Seg07
L_mid_hand01 Rope1_Seg09
L_mid_hand02 Rope1_Seg09
L_mid_hand03 Rope1_Seg09
null_rope02_connect R_mid_tent01
Rope2_Seg01 null_rope02_connect
Rope2_Seg02 Rope2_Seg01
Rope2_Seg03 Rope2_Seg02
Rope2_Seg04 Rope2_Seg03
Rope2_Seg05 Rope2_Seg04
Rope2_Seg06 Rope2_Seg05
Rope2_Seg07 Rope2_Seg06
Rope2_Seg09 Rope2_Seg07
R_mid_hand01 Rope2_Seg09
R_mid_hand02 Rope2_Seg09
R_mid_hand03 Rope2_Seg09
spine02 spine01
spine03 spine02
pelvis spine03
null_rope03_connect pelvis
null_rope04_connect pelvis
Rope3_Seg01 null_rope03_connect
Rope3_Seg02 Rope3_Seg01
Rope3_Seg03 Rope3_Seg02
Rope3_Seg04 Rope3_Seg03
Rope3_Seg05 Rope3_Seg04
Rope3_Seg06 Rope3_Seg05
Rope3_Seg07 Rope3_Seg06
Rope3_Seg08 Rope3_Seg07
Rope3_Seg09 Rope3_Seg08
R_rear_hand01 Rope3_Seg09
R_rear_hand02 Rope3_Seg09
R_rear_hand03 Rope3_Seg09
Rope4_Seg01 null_rope04_connect
Rope4_Seg02 Rope4_Seg01
Rope4_Seg03 Rope4_Seg02
Rope4_Seg04 Rope4_Seg03
Rope4_Seg05 Rope4_Seg04
Rope4_Seg06 Rope4_Seg05
Rope4_Seg07 Rope4_Seg06
Rope4_Seg08 Rope4_Seg07
Rope4_Seg09 Rope4_Seg08
L_rear_hand01 Rope4_Seg09
L_rear_hand02 Rope4_Seg09
L_rear_hand03 Rope4_Seg09
[BasePosition]
#SegmentName Tx, Ty, Tz, Rx, Ry, Rz, BoneLength
MASTER 0.000000 0.000000 0.000000 -90.000000 0.000000 0.000000 10.000000 
root 0.000000 0.000000 0.000000 0.000000 0.000000 0.000000 10.000000 
chest 0.000000 0.000000 0.000000 0.000000 0.000000 0.000000 10.000000 
L_mid_tent01 0.000000 0.000000 0.000000 0.000000 0.000000 0.000000 10.000000 
R_mid_tent01 0.000000 0.000000 0.000000 0.000000 0.000000 0.000000 10.000000 
spine01 0.000000 0.000000 0.000000 0.000000 0.000000 0.000000 10.000000 
Bip01_Neck 0.000000 0.000000 0.000000 0.000000 0.000000 0.000000 10.000000 
L_humerus 0.000000 0.000000 0.000000 0.000000 0.000000 0.000000 10.000000 
R_humerus 0.000000 0.000000 0.000000 0.000000 0.000000 0.000000 10.000000 
weapon_bone 0.000000 0.000000 0.000000 0.000000 0.000000 0.000000 10.000000 
Bip01_Head 0.000000 0.000000 0.000000 0.000000 0.000000 0.000000 10.000000 
eye_left_bone 0.000000 0.000000 0.000000 0.000000 0.000000 0.000000 10.000000 
eye_right_bone 0.000000 0.000000 0.000000 0.000000 0.000000 0.000000 10.000000 
L_forearm 0.000000 0.000000 0.000000 0.000000 0.000000 0.000000 10.000000 
L_front_hand 0.000000 0.000000 0.000000 0.000000 0.000000 0.000000 10.000000 
L_weapon_bone 0.000000 0.000000 0.000000 0.000000 0.000000 0.000000 10.000000 
L_front_hand01_01 0.000000 0.000000 0.000000 0.000000 0.000000 0.000000 10.000000 
L_front_hand02_01 0.000000 0.000000 0.000000 0.000000 0.000000 0.000000 10.000000 
L_front_hand03_01 0.000000 0.000000 0.000000 0.000000 0.000000 0.000000 10.000000 
L_front_hand01_02 0.000000 0.000000 0.000000 0.000000 0.000000 0.000000 10.000000 
L_front_hand02_02 0.000000 0.000000 0.000000 0.000000 0.000000 0.000000 10.000000 
L_front_hand03_02 0.000000 0.000000 0.000000 0.000000 0.000000 0.000000 10.000000 
R_forearm 0.000000 0.000000 0.000000 0.000000 0.000000 0.000000 10.000000 
R_front_hand 0.000000 0.000000 0.000000 0.000000 0.000000 0.000000 10.000000 
R_weapon_bone 0.000000 0.000000 0.000000 0.000000 0.000000 0.000000 10.000000 
R_front_hand01_01 0.000000 0.000000 0.000000 0.000000 0.000000 0.000000 10.000000 
R_front_hand02_01 0.000000 0.000000 0.000000 0.000000 0.000000 0.000000 10.000000 
R_front_hand03_01 0.000000 0.000000 0.000000 0.000000 0.000000 0.000000 10.000000 
R_front_hand01_02 0.000000 0.000000 0.000000 0.000000 0.000000 0.000000 10.000000 
R_front_hand02_02 0.000000 0.000000 0.000000 0.000000 0.000000 0.000000 10.000000 
R_front_hand03_02 0.000000 0.000000 0.000000 0.000000 0.000000 0.000000 10.000000 
null_rope01_connect 0.000000 0.000000 0.000000 0.000000 0.000000 0.000000 10.000000 
Rope1_Seg01 0.000000 0.000000 0.000000 0.000000 0.000000 0.000000 10.000000 
Rope1_Seg02 0.000000 0.000000 0.000000 0.000000 0.000000 0.000000 10.000000 
Rope1_Seg03 0.000000 0.000000 0.000000 0.000000 0.000000 0.000000 10.000000 
Rope1_Seg04 0.000000 0.000000 0.000000 0.000000 0.000000 0.000000 10.000000 
Rope1_Seg05 0.000000 0.000000 0.000000 0.000000 0.000000 0.000000 10.000000 
Rope1_Seg06 0.000000 0.000000 0.000000 0.000000 0.000000 0.000000 10.000000 
Rope1_Seg07 0.000000 0.000000 0.000000 0.000000 0.000000 0.000000 10.000000 
Rope1_Seg09 0.000000 0.000000 0.000000 0.000000 0.000000 0.000000 10.000000 
L_mid_hand01 0.000000 0.000000 0.000000 0.000000 0.000000 0.000000 10.000000 
L_mid_hand02 0.000000 0.000000 0.000000 0.000000 0.000000 0.000000 10.000000 
L_mid_hand03 0.000000 0.000000 0.000000 0.000000 0.000000 0.000000 10.000000 
null_rope02_connect 0.000000 0.000000 0.000000 0.000000 0.000000 0.000000 10.000000 
Rope2_Seg01 0.000000 0.000000 0.000000 0.000000 0.000000 0.000000 10.000000 
Rope2_Seg02 0.000000 0.000000 0.000000 0.000000 0.000000 0.000000 10.000000 
Rope2_Seg03 0.000000 0.000000 0.000000 0.000000 0.000000 0.000000 10.000000 
Rope2_Seg04 0.000000 0.000000 0.000000 0.000000 0.000000 0.000000 10.000000 
Rope2_Seg05 0.000000 0.000000 0.000000 0.000000 0.000000 0.000000 10.000000 
Rope2_Seg06 0.000000 0.000000 0.000000 0.000000 0.000000 0.000000 10.000000 
Rope2_Seg07 0.000000 0.000000 0.000000 0.000000 0.000000 0.000000 10.000000 
Rope2_Seg09 0.000000 0.000000 0.000000 0.000000 0.000000 0.000000 10.000000 
R_mid_hand01 0.000000 0.000000 0.000000 0.000000 0.000000 0.000000 10.000000 
R_mid_hand02 0.000000 0.000000 0.000000 0.000000 0.000000 0.000000 10.000000 
R_mid_hand03 0.000000 0.000000 0.000000 0.000000 0.000000 0.000000 10.000000 
spine02 0.000000 0.000000 0.000000 0.000000 0.000000 0.000000 10.000000 
spine03 0.000000 0.000000 0.000000 0.000000 0.000000 0.000000 10.000000 
pelvis 0.000000 0.000000 0.000000 0.000000 0.000000 0.000000 10.000000 
null_rope03_connect 0.000000 0.000000 0.000000 0.000000 0.000000 0.000000 10.000000 
null_rope04_connect 0.000000 0.000000 0.000000 0.000000 0.000000 0.000000 10.000000 
Rope3_Seg01 0.000000 0.000000 0.000000 0.000000 0.000000 0.000000 10.000000 
Rope3_Seg02 0.000000 0.000000 0.000000 0.000000 0.000000 0.000000 10.000000 
Rope3_Seg03 0.000000 0.000000 0.000000 0.000000 0.000000 0.000000 10.000000 
Rope3_Seg04 0.000000 0.000000 0.000000 0.000000 0.000000 0.000000 10.000000 
Rope3_Seg05 0.000000 0.000000 0.000000 0.000000 0.000000 0.000000 10.000000 
Rope3_Seg06 0.000000 0.000000 0.000000 0.000000 0.000000 0.000000 10.000000 
Rope3_Seg07 0.000000 0.000000 0.000000 0.000000 0.000000 0.000000 10.000000 
Rope3_Seg08 0.000000 0.000000 0.000000 0.000000 0.000000 0.000000 10.000000 
Rope3_Seg09 0.000000 0.000000 0.000000 0.000000 0.000000 0.000000 10.000000 
R_rear_hand01 0.000000 0.000000 0.000000 0.000000 0.000000 0.000000 10.000000 
R_rear_hand02 0.000000 0.000000 0.000000 0.000000 0.000000 0.000000 10.000000 
R_rear_hand03 0.000000 0.000000 0.000000 0.000000 0.000000 0.000000 10.000000 
Rope4_Seg01 0.000000 0.000000 0.000000 0.000000 0.000000 0.000000 10.000000 
Rope4_Seg02 0.000000 0.000000 0.000000 0.000000 0.000000 0.000000 10.000000 
Rope4_Seg03 0.000000 0.000000 0.000000 0.000000 0.000000 0.000000 10.000000 
Rope4_Seg04 0.000000 0.000000 0.000000 0.000000 0.000000 0.000000 10.000000 
Rope4_Seg05 0.000000 0.000000 0.000000 0.000000 0.000000 0.000000 10.000000 
Rope4_Seg06 0.000000 0.000000 0.000000 0.000000 0.000000 0.000000 10.000000 
Rope4_Seg07 0.000000 0.000000 0.000000 0.000000 0.000000 0.000000 10.000000 
Rope4_Seg08 0.000000 0.000000 0.000000 0.000000 0.000000 0.000000 10.000000 
Rope4_Seg09 0.000000 0.000000 0.000000 0.000000 0.000000 0.000000 10.000000 
L_rear_hand01 0.000000 0.000000 0.000000 0.000000 0.000000 0.000000 10.000000 
L_rear_hand02 0.000000 0.000000 0.000000 0.000000 0.000000 0.000000 10.000000 
L_rear_hand03 0.000000 0.000000 0.000000 0.000000 0.000000 0.000000 10.000000 
#Beginning of Data. Separated by tabs
#Fr	Tx	Ty	Tz	Rx	Ry	Rz	SF
[MASTER]
40 -66.185234 5903.989746 21.561516 0.001660 0.001660 0.001660 5904.399902
41 -57.912186 6219.368164 18.866310 0.001660 0.001660 0.001660 6219.666016
[root]
40 37.201916 -117.646156 941.516724 -93.982986 -24.306213 -88.210838 949.567383
41 34.894348 -112.189331 963.293213 -93.559258 -21.931225 -88.449547 970.431763
[chest]
40 -84.512650 -34.090519 0.000000 3.046494 -9.792302 137.881714 91.129311
41 -84.512650 -34.090519 0.000000 2.256248 -8.676669 141.477173 91.129311
[L_mid_tent01]
40 27.298666 22.178982 -249.918686 -15.751525 24.822971 34.314743 252.381607
41 27.298656 22.178978 -249.918686 -16.669832 23.328794 31.474930 252.381607
[R_mid_tent01]
40 23.228794 24.509907 226.238495 -173.670135 -25.446625 39.093647 228.744751
41 23.228794 24.509907 226.238495 -172.474060 -24.631233 37.110073 228.744751
[spine01]
40 -0.361383 -0.195265 0.000000 -0.000001 -0.000007 22.052340 0.410763
41 -0.361383 -0.195265 0.000000 -0.000001 -0.000007 22.052340 0.410763
[Bip01_Neck]
40 165.484543 71.581718 0.000119 176.643677 -1.657967 43.431911 180.302734
41 165.484543 71.581718 0.000119 176.643677 -1.657967 43.431911 180.302734
[L_humerus]
40 -13.983130 -135.272980 -120.471481 15.468024 80.534149 105.841202 181.680161
41 -13.983130 -135.272980 -120.471481 10.584555 79.394272 100.932487 181.680161
[R_humerus]
40 -13.983309 -135.273102 125.287651 34.916885 -83.688850 60.295231 184.909012
41 -13.983309 -135.273102 125.287651 33.468605 -82.121193 61.801876 184.909012
[weapon_bone]
40 235.964890 -300.705902 0.000000 0.000000 -89.951546 -128.212341 382.234833
41 235.964890 -300.705902 0.000000 0.000000 -89.951546 -128.212341 382.234833
[Bip01_Head]
40 203.286163 162.408447 31.616497 14.385878 3.070239 -46.566738 262.109467
41 203.286240 162.408447 31.616497 9.851759 2.936844 -45.282230 262.109528
[eye_left_bone]
40 -24.626970 125.451866 -64.772606 0.000000 -90.000000 -99.840431 143.318359
41 -24.626970 125.451866 -64.772606 0.000000 -90.000000 -99.840431 143.318359
[eye_right_bone]
40 -24.626970 125.451866 64.327362 0.000000 -89.965736 80.156380 143.117676
41 -24.626970 125.451866 64.327362 0.000000 -89.965736 80.156380 143.117676
[L_forearm]
40 322.776093 0.000000 -0.000119 0.000007 0.002347 -89.636909 322.776093
41 322.776093 0.000000 -0.000119 0.000264 0.002332 -77.082169 322.776093
[L_front_hand]
40 241.149185 -0.042021 -3.300071 0.836591 -1.835726 -27.423458 241.171753
41 241.149185 -0.042021 -3.300071 0.836591 -1.835726 -27.423458 241.171753
[L_weapon_bone]
40 156.183838 0.000000 0.000000 0.000014 0.000007 0.000001 156.183838
41 156.183838 0.000000 0.000000 0.000014 0.000007 0.000001 156.183838
[L_front_hand01_01]
40 86.095154 20.947098 -0.655860 -0.366594 -0.477154 75.385574 88.609184
41 86.095154 20.947098 -0.655860 -0.366594 -0.477154 75.385574 88.609184
[L_front_hand02_01]
40 86.935165 -11.437475 24.513514 154.399796 -59.883835 -61.369587 91.046425
41 86.935165 -11.437475 24.513514 154.399796 -59.883835 -61.369587 91.046425
[L_front_hand03_01]
40 86.637497 -14.123976 -20.424902 -153.913849 58.118122 -62.702866 90.126129
41 86.637497 -14.123976 -20.424902 -153.913849 58.118130 -62.702866 90.126129
[L_front_hand01_02]
40 71.020905 -0.000179 0.000030 0.000334 -0.002323 -106.379684 71.020905
41 71.020905 -0.000179 0.000030 0.000334 -0.002323 -106.379684 71.020905
[L_front_hand02_02]
40 71.020927 -0.000119 0.000060 0.000334 -0.002323 -106.379684 71.020927
41 71.020927 -0.000119 0.000060 0.000334 -0.002323 -106.379684 71.020927
[L_front_hand03_02]
40 71.020905 -0.000060 0.000060 0.000334 -0.002323 -106.379684 71.020905
41 71.020905 -0.000060 0.000060 0.000334 -0.002323 -106.379684 71.020905
[R_forearm]
40 322.776428 -0.000060 0.000030 0.213125 -0.012344 -87.742233 322.776428
41 322.776428 -0.000060 0.000030 0.203404 -0.060974 -74.301575 322.776428
[R_front_hand]
40 238.847015 -0.006795 2.210259 42.936222 -10.646152 -26.312963 238.857239
41 238.847015 -0.006795 2.210259 42.936222 -10.646152 -26.312963 238.857239
[R_weapon_bone]
40 155.664093 0.002503 -0.000030 0.003487 0.001180 -90.988930 155.664078
41 155.664093 0.002503 -0.000030 0.003487 0.001180 -90.988930 155.664078
[R_front_hand01_01]
40 87.624611 14.231146 22.918642 -154.633499 -59.950619 61.746044 91.683487
41 87.624611 14.231146 22.918642 -154.633514 -59.950634 61.746063 91.683487
[R_front_hand02_01]
40 89.356956 14.367283 -19.491137 154.602661 58.302849 63.744389 92.579636
41 89.356956 14.367283 -19.491137 154.602661 58.302849 63.744389 92.579636
[R_front_hand03_01]
40 87.286232 -22.307278 -0.143439 0.162155 -0.423168 -75.767921 90.091743
41 87.286232 -22.307278 -0.143439 0.162155 -0.423168 -75.767921 90.091743
[R_front_hand01_02]
40 71.020905 0.000060 0.000119 0.002323 -0.000334 106.381714 71.020905
41 71.020905 0.000060 0.000119 0.002323 -0.000334 106.381714 71.020905
[R_front_hand02_02]
40 71.020844 -0.000030 -0.000119 0.002323 -0.000334 106.381714 71.020836
41 71.020844 -0.000030 -0.000119 0.002323 -0.000334 106.381714 71.020836
[R_front_hand03_02]
40 71.020905 0.000000 0.000030 0.002323 -0.000334 106.381714 71.020905
41 71.020905 0.000000 0.000030 0.002323 -0.000334 106.381714 71.020905
[null_rope01_connect]
40 328.732483 0.000000 -0.000238 -138.319748 -58.355274 -144.415085 328.732483
41 328.732483 0.000000 -0.000238 -140.729248 -59.260738 -141.626480 328.732483
[Rope1_Seg01]
40 -0.000025 -0.001019 0.000127 45.413578 40.579685 -122.908257 0.001028
41 -0.000027 -0.001045 0.000130 45.711346 37.925701 -122.551506 0.001053
[Rope1_Seg02]
40 139.999863 -0.000179 0.000000 2.387263 -4.822531 12.233471 139.999863
41 139.999863 -0.000179 0.000000 2.599182 -3.739907 10.688111 139.999863
[Rope1_Seg03]
40 139.999924 0.000060 -0.000060 3.320461 -7.153055 13.684035 139.999924
41 139.999924 0.000060 -0.000060 3.714643 -5.033296 11.622621 139.999924
[Rope1_Seg04]
40 139.999924 -0.000060 -0.000119 7.514544 -4.734663 11.682244 139.999924
41 139.999924 -0.000060 -0.000119 5.616036 -5.135423 11.153738 139.999924
[Rope1_Seg05]
40 139.999832 0.000119 -0.000060 14.225868 12.194100 0.536621 139.999832
41 139.999832 0.000119 -0.000060 14.093587 8.574668 3.397382 139.999832
[Rope1_Seg06]
40 139.999954 0.000119 -0.000060 5.666200 12.842755 -5.157696 139.999954
41 139.999954 0.000119 -0.000060 8.150371 13.475683 -3.503255 139.999954
[Rope1_Seg07]
40 139.999985 0.000060 0.000000 2.738420 7.001923 -2.254595 139.999985
41 139.999985 0.000060 0.000000 3.976832 7.725278 -1.490562 139.999985
[Rope1_Seg09]
40 121.602913 0.000119 -0.000089 -89.793175 -1.359789 0.847147 121.602913
41 121.602913 0.000119 -0.000089 -89.793175 -1.359789 0.847147 121.602913
[L_mid_hand01]
40 103.859421 1.038730 8.195221 130.544373 -67.584534 -38.866943 104.187431
41 103.859421 1.038730 8.195221 130.544373 -67.584534 -38.866943 104.187431
[L_mid_hand02]
40 105.572853 -4.139662 -10.864139 -168.923172 43.409309 -73.498886 106.211075
41 105.572853 -4.139662 -10.864139 -168.923172 43.409309 -73.498886 106.211075
[L_mid_hand03]
40 104.641464 17.579376 -3.913581 -6.012626 17.808172 74.893661 106.179977
41 104.641464 17.579376 -3.913581 -6.012627 17.808174 74.893669 106.179977
[null_rope02_connect]
40 328.732849 0.000179 -0.000119 -112.197578 65.273369 -5.275882 328.732849
41 328.732849 0.000179 -0.000119 -116.306938 65.755592 -8.867867 328.732849
[Rope2_Seg01]
40 0.000070 0.000026 0.000000 15.535940 36.462017 -50.157181 0.000074
41 0.000071 0.000023 0.000000 15.643339 35.307903 -49.958046 0.000074
[Rope2_Seg02]
40 139.999741 -0.000060 -0.000119 -9.526965 -7.683631 -13.007930 139.999756
41 139.999741 -0.000060 -0.000119 -10.426126 -8.042296 -13.668886 139.999756
[Rope2_Seg03]
40 140.000107 0.000030 0.000000 -11.352166 -6.032304 -18.634453 140.000107
41 140.000107 0.000030 0.000000 -11.282202 -5.268690 -17.959936 140.000107
[Rope2_Seg04]
40 139.999802 0.000000 -0.000060 -7.442654 -1.748072 -15.652036 139.999802
41 139.999802 0.000000 -0.000060 -6.761676 -1.427337 -13.486889 139.999802
[Rope2_Seg05]
40 139.999985 -0.000060 0.000119 0.729555 -4.005969 3.678514 139.999985
41 139.999985 -0.000060 0.000119 -0.361262 -4.253542 1.376114 139.999985
[Rope2_Seg06]
40 139.999893 -0.000030 -0.000119 2.720964 -4.796995 7.066960 139.999893
41 139.999893 -0.000030 -0.000119 0.467937 -4.762491 3.195176 139.999893
[Rope2_Seg07]
40 139.999893 0.000060 -0.000060 1.205526 -3.283693 3.243118 139.999893
41 139.999893 0.000060 -0.000060 -0.697301 -3.219951 0.575405 139.999893
[Rope2_Seg09]
40 121.338966 0.000089 -0.000060 33.793236 -1.359788 -0.847141 121.338966
41 121.338966 0.000089 -0.000060 33.793236 -1.359788 -0.847141 121.338966
[R_mid_hand01]
40 104.680779 11.144459 -10.335981 -16.212063 45.237247 70.462852 105.778534
41 104.680779 11.144459 -10.335981 -16.212063 45.237247 70.462852 105.778534
[R_mid_hand02]
40 104.070427 2.443552 8.231699 49.067368 -67.749771 39.286453 104.424065
41 104.070427 2.443552 8.231699 49.067368 -67.749771 39.286453 104.424065
[R_mid_hand03]
40 106.028137 -11.221827 -5.996406 -177.101105 15.551026 -76.585571 106.788818
41 106.028137 -11.221827 -5.996406 -177.101105 15.551026 -76.585571 106.788818
[spine02]
40 129.756927 0.001550 0.000119 0.389791 -4.041716 -13.339516 129.756927
41 129.756927 0.001550 0.000119 0.383636 -4.042375 -13.257929 129.756927
[spine03]
40 78.613914 0.081635 -4.899021 1.913726 3.821795 16.748533 78.766457
41 78.613914 0.081635 -4.899021 1.910845 3.824116 16.693459 78.766457
[pelvis]
40 169.435242 0.051022 0.000000 -0.061311 -0.179939 14.626286 169.435257
41 169.435242 0.051022 0.000000 -0.061139 -0.179998 14.516601 169.435257
[null_rope03_connect]
40 -1.257226 -2.466202 137.391083 169.410095 -87.438141 -95.127716 137.418976
41 -1.257226 -2.466202 137.391083 167.235733 -87.758072 -95.258072 137.418976
[null_rope04_connect]
40 -1.259640 -2.480268 -137.844437 169.410095 -87.438141 -95.127716 137.872513
41 -1.259640 -2.480268 -137.844437 167.235733 -87.758072 -95.258072 137.872513
[Rope3_Seg01]
40 0.000013 -0.000513 0.000000 22.682308 -26.950279 -87.346222 0.000513
41 0.000011 -0.000525 0.000000 21.208925 -18.744123 -89.816574 0.000525
[Rope3_Seg02]
40 139.999924 -0.000119 0.000060 -1.097134 4.754302 -0.712168 139.999924
41 139.999924 -0.000119 0.000060 -0.667309 3.321530 0.135697 139.999924
[Rope3_Seg03]
40 139.999924 -0.000119 0.000119 -1.193902 6.118828 -0.869511 139.999924
41 139.999924 -0.000119 0.000119 -0.722369 4.257450 0.227221 139.999924
[Rope3_Seg04]
40 139.999924 0.000119 0.000000 -2.277573 10.966980 -4.009339 139.999924
41 139.999924 0.000119 0.000000 -1.470002 7.402549 -1.907566 139.999924
[Rope3_Seg05]
40 139.999924 -0.000238 0.000060 0.136278 5.155138 3.979045 139.999924
41 139.999924 -0.000238 0.000060 -0.026516 6.190317 3.418247 139.999924
[Rope3_Seg06]
40 139.999893 -0.000119 -0.000060 0.241206 -2.737026 6.559325 139.999893
41 139.999893 -0.000119 -0.000060 0.385896 -1.224765 6.688330 139.999893
[Rope3_Seg07]
40 139.999771 0.000060 -0.000119 0.427573 0.021992 2.504467 139.999771
41 139.999771 0.000060 -0.000119 0.438992 0.287926 2.757802 139.999771
[Rope3_Seg08]
40 139.999985 -0.000060 0.000000 0.472607 0.084744 1.441250 139.999985
41 139.999985 -0.000060 0.000000 0.485524 0.306803 1.526293 139.999985
[Rope3_Seg09]
40 90.185997 -0.000179 -0.000060 89.793228 -1.359877 -0.847183 90.185997
41 90.185997 -0.000179 -0.000060 89.793228 -1.359877 -0.847183 90.185997
[R_rear_hand01]
40 103.366196 -6.073594 -10.757982 -177.714203 24.565960 -73.910950 104.101845
41 103.366196 -6.073594 -10.757982 -177.714203 24.565960 -73.910950 104.101845
[R_rear_hand02]
40 100.509819 12.039542 -7.992327 -12.874829 36.868488 72.167213 101.543350
41 100.509819 12.039542 -7.992327 -12.874829 36.868488 72.167213 101.543350
[R_rear_hand03]
40 101.539970 5.215704 5.435467 71.484581 -71.816628 21.513813 101.819031
41 101.539970 5.215704 5.435467 71.484581 -71.816628 21.513813 101.819031
[Rope4_Seg01]
40 -0.000011 -0.000013 -0.000153 -98.083321 0.864067 -120.697479 0.000154
41 -0.000011 -0.000011 -0.000153 -99.352623 4.803681 -120.915100 0.000153
[Rope4_Seg02]
40 139.999985 0.000060 0.000119 -1.258316 -3.882730 2.707034 139.999985
41 139.999985 0.000060 0.000119 -1.289887 -4.306451 2.356781 139.999985
[Rope4_Seg03]
40 139.999924 0.000000 -0.000238 -1.181355 -4.411985 2.947966 139.999924
41 139.999924 0.000000 -0.000238 -1.171920 -4.891237 2.551897 139.999924
[Rope4_Seg04]
40 139.999985 0.000000 0.000119 -1.981429 -8.932906 6.048349 139.999985
41 139.999985 0.000000 0.000119 -1.875013 -9.980289 5.380623 139.999985
[Rope4_Seg05]
40 139.999802 -0.000060 -0.000119 -0.067128 -1.555880 0.695021 139.999802
41 139.999802 -0.000060 -0.000119 -0.066262 -2.179153 0.710285 139.999802
[Rope4_Seg06]
40 139.999924 0.000000 0.000060 0.960661 8.147745 -5.698953 139.999924
41 139.999924 0.000000 0.000060 0.763970 8.912168 -5.189153 139.999924
[Rope4_Seg07]
40 139.999802 0.000000 0.000000 0.986325 4.120375 -3.041538 139.999802
41 139.999802 0.000000 0.000000 0.939216 4.572474 -2.807264 139.999802
[Rope4_Seg08]
40 139.999924 0.000000 0.000119 -0.948124 1.903639 -1.488196 139.999924
41 139.999924 0.000000 0.000119 -0.976507 2.023350 -1.326469 139.999924
[Rope4_Seg09]
40 90.185791 0.000060 0.000060 -135.617828 2.228885 0.850567 90.185791
41 90.185791 0.000060 0.000060 -135.617828 2.228885 0.850567 90.185791
[L_rear_hand01]
40 101.696655 -8.392275 -7.654577 -12.874829 -36.868488 107.832764 102.329041
41 101.696655 -8.392275 -7.654577 -12.874829 -36.868488 107.832764 102.329041
[L_rear_hand02]
40 102.726799 -1.568258 5.773216 71.484581 71.816628 158.486160 102.900848
41 102.726799 -1.568258 5.773216 71.484581 71.816628 158.486160 102.900848
[L_rear_hand03]
40 104.552910 9.721220 -10.420293 -177.714203 -24.565960 -106.089035 105.519653
41 104.552910 9.721220 -10.420293 -177.714203 -24.565960 -106.089035 105.519653
